<svg width="1024" height="1024" viewBox="0 0 1024 1024" fill="none" xmlns="http://www.w3.org/2000/svg">
  <rect x="84" y="84" width="856" height="856" rx="228" fill="#A36D44"/>

  <circle cx="512" cy="520" r="232" fill="#CDA77A"/>
  <ellipse cx="408" cy="280" rx="62" ry="92" transform="rotate(-16 408 280)" fill="#CDA77A"/>
  <ellipse cx="616" cy="280" rx="62" ry="92" transform="rotate(16 616 280)" fill="#CDA77A"/>

  <ellipse cx="512" cy="620" rx="150" ry="126" fill="#F1DFC5"/>

  <ellipse cx="428" cy="470" rx="32" ry="40" fill="#35251B"/>
  <ellipse cx="596" cy="470" rx="32" ry="40" fill="#35251B"/>
  <circle cx="416" cy="456" r="10" fill="#FFFFFF"/>
  <circle cx="584" cy="456" r="10" fill="#FFFFFF"/>

  <ellipse cx="512" cy="566" rx="56" ry="42" fill="#3F2C20"/>
  <ellipse cx="512" cy="556" rx="22" ry="13" fill="#241912"/>
  <path d="M452 652C477 682 497 694 512 694C527 694 547 682 572 652" stroke="#7C5339" stroke-width="22" stroke-linecap="round"/>

  <circle cx="286" cy="260" r="76" fill="#DCC0A0" fill-opacity="0.18"/>
  <circle cx="744" cy="748" r="100" fill="#7E5436" fill-opacity="0.16"/>
</svg>
